Coordinates
version=1
nRows=13
nColumns=22
inDegrees=yes

Units are S.I. units (second, meters, Newtons, ...)
If the header above contains a line with 'inDegrees', this indicates whether rotational values are in degrees (yes) or radians (no).

endheader
time	pelvis_tilt	pelvis_list	pelvis_rotation	pelvis_tx	pelvis_ty	pelvis_tz	hip_flexion_r	hip_adduction_r	hip_rotation_r	knee_angle_r	ankle_angle_r	subtalar_angle_r	hip_flexion_l	hip_adduction_l	hip_rotation_l	knee_angle_l	ankle_angle_l	subtalar_angle_l	lumbar_extension	lumbar_bending	lumbar_rotation
      5.16000000	     -5.10818803	     -3.69288915	    261.18098129	     -0.71019746	      0.90428174	      0.37533510	    -14.08749672	     -2.33066510	    -10.20469255	    -22.05376639	     10.06106309	     13.14163234	     19.41819170	    -10.50456690	    -52.46220947	    -17.64892979	      8.49073907	    -11.55505309	     -8.55614673	     -1.42105268	     15.74018483
      5.17000000	     -4.88479134	     -3.95765487	    261.56688180	     -0.70750215	      0.90426588	      0.38569234	    -14.36031581	     -2.85032340	    -10.01586404	    -23.24147283	      9.12835427	     13.83455458	     19.06210094	    -10.29279246	    -52.29611343	    -18.74048245	      8.21818929	    -13.29508495	     -8.55942426	     -1.74193446	     15.69808845
      5.18000000	     -4.62380278	     -4.18731742	    262.05226789	     -0.70443999	      0.90442503	      0.39606838	    -14.48959350	     -3.39356378	     -9.84187488	    -24.59993719	      7.98619670	     14.54890356	     18.75922488	     -9.96183850	    -51.91208190	    -19.75251022	      7.87857112	    -14.99801244	     -8.53058939	     -2.07486085	     15.57314919
      5.19000000	     -4.34797419	     -4.37622044	    262.62142154	     -0.70105278	      0.90477335	      0.40644055	    -14.46671608	     -3.93516228	     -9.64279927	    -26.12163625	      6.57886336	     15.29402140	     18.50488094	     -9.55400203	    -51.35311549	    -20.69649576	      7.53482407	    -16.56728060	     -8.46617572	     -2.39255560	     15.38085519
      5.20000000	     -4.07607144	     -4.52950976	    263.28209745	     -0.69734567	      0.90532689	      0.41676085	    -14.29662712	     -4.45187440	     -9.41309764	    -27.79593715	      4.89851889	     16.05048196	     18.28416540	     -9.07983536	    -50.58042629	    -21.55150633	      7.15859758	    -17.89885759	     -8.38018584	     -2.67345053	     15.12727495
      5.21000000	     -3.82475610	     -4.64354853	    264.05478599	     -0.69332428	      0.90605587	      0.42700421	    -13.97804303	     -4.92316665	     -9.19180582	    -29.61425480	      2.94781135	     16.77001673	     18.10040371	     -8.56598657	    -49.61476786	    -22.33689606	      6.75715680	    -18.90971067	     -8.27120329	     -2.89820920	     14.79103828
      5.22000000	     -3.61657487	     -4.72223995	    264.86257949	     -0.68909654	      0.90694777	      0.43714650	    -13.49670678	     -5.33127843	     -8.83072555	    -31.56962722	      0.68889892	     17.51013384	     17.91838565	     -8.06452067	    -48.59016155	    -23.05578625	      6.47940891	    -19.72409995	     -8.13759406	     -3.04639884	     14.46854909
      5.23000000	     -3.45434636	     -4.76042207	    265.73858793	     -0.68465498	      0.90794496	      0.44714003	    -12.84670063	     -5.65688779	     -8.35786460	    -33.65758951	     -1.81341888	     18.22369144	     17.74590376	     -7.56799020	    -47.50455158	    -23.69093143	      6.27820443	    -20.32039162	     -7.97608413	     -3.11299488	     14.07564051
      5.24000000	     -3.34855981	     -4.76993184	    266.66394928	     -0.68006282	      0.90899766	      0.45693115	    -12.02593114	     -5.89365638	     -7.78763521	    -35.88816294	     -4.51241517	     18.85430201	     17.57336068	     -7.10045920	    -46.39270092	    -24.25753288	      6.14490321	    -20.70876682	     -7.80129019	     -3.09938096	     13.69537033
      5.25000000	     -3.27603222	     -4.75276502	    267.65753081	     -0.67531646	      0.91004813	      0.46646903	    -11.04124777	     -6.04435108	     -7.11290339	    -38.25011662	     -7.29136081	     19.27530515	     17.39697573	     -6.60689709	    -45.18398730	    -24.70836451	      6.08904607	    -20.89107286	     -7.61623639	     -3.03205265	     13.26549891
      5.26000000	     -3.27238435	     -4.70151929	    268.63282389	     -0.67059834	      0.91102125	      0.47571207	     -9.85109662	     -6.07113867	     -6.24570559	    -40.76927219	    -10.10253014	     19.65641594	     17.21926030	     -6.18403767	    -44.05037992	    -25.09917392	      6.19460107	    -20.95649173	     -7.41166425	     -2.88585578	     12.88764767
      5.27000000	     -3.28066797	     -4.64468676	    269.64329757	     -0.66585617	      0.91190854	      0.48464726	     -8.51919070	     -6.01910080	     -5.29540204	    -43.40238363	    -12.81132283	     19.75345368	     17.02022655	     -5.73845597	    -42.88794283	    -25.39921098	      6.36978668	    -20.86221621	     -7.22133870	     -2.72556179	     12.48782348
      5.28000000	     -3.30117813	     -4.58921621	    270.65827291	     -0.66117493	      0.91270151	      0.49326677	     -7.06015879	     -5.88226902	     -4.26540447	    -46.12078914	    -15.34202714	     19.60522994	     16.78683448	     -5.29175846	    -41.75610927	    -25.61607782	      6.58001844	    -20.65360725	     -7.05488880	     -2.55953890	     12.09772989
